# xmcd
#
# Track frame offsets:
#	150
#	19106
#	42677
#	59649
#	81599
#	101556
#	115819
#	134224
#	160056
#	174986
#	199823
#	216095
#	242713
#	268818
#	284249
#	302985
#	324949
#
# Disc length: 4716
#
# Revision: 1
# Processed by: cddbd v1.5.1PL0 Copyright (c) Steve Scherf et al.
# Submitted via: CDex 1.50beta8
# Normalized: r0:TRMNUM
#
DISCID=0e126a11
DTITLE=NICK THE NIGHTFLY - On top of the world Vol.8
DYEAR=2003
DGENRE=Lounge
TTITLE0=NICK THE NIGHTFLY - Paris Tonight -
TTITLE1=MO'HORIZONS - Quando Te Veo -
TTITLE2=CESARIA EVORA - Besame Mucho (Senor Coconut's Chachacha Remix) -
TTITLE3=MICATONE - Plastic Bags and Magazines - 
TTITLE4=GEORG LEVIN - In Your Car -
TTITLE5=MONTEFIORI COCKTAIL - Comment Te Dire Adieu -
TTITLE6=CARLINHOS BROWN - Carlito Marron -
TTITLE7=BEADY BEALE - Bella -
TTITLE8=MALIA - My Purple Shoes (Remix) -
TTITLE9=ASTOR PIAZZOLLA- Vuelvo Al Sur (KoopRemix) -
TTITLE10=NITIN SAWHNEY - Rainfall -
TTITLE11=SUNSOUL - So Danço -
TTITLE12=BUGGE WESSELTOFT - Lone (Edit) -
TTITLE13=TIME PASSING- It's A New Day (Edit) -
TTITLE14=EDDY and DUSS MEET LILIAN TERRY- Round About Midnight -
TTITLE15=VIA JANEIRO - Deepest Love -
TTITLE16=MULATO BEAT - Setimo Ceu -
EXTD=YEAR: 2003
EXTT0=
EXTT1=
EXTT2=
EXTT3=
EXTT4=
EXTT5=
EXTT6=
EXTT7=
EXTT8=
EXTT9=
EXTT10=
EXTT11=
EXTT12=
EXTT13=
EXTT14=
EXTT15=
EXTT16=
PLAYORDER=
